<svg width="507" height="130" viewBox="0 0 507 130" fill="none" xmlns="http://www.w3.org/2000/svg">
<rect x="391" y="50" width="14" height="24" fill="#ED0A0F"/>
<path d="M168.549 51.1206C164.847 51.1206 161.979 52.5171 159.948 55.3101C157.917 58.0819 156.901 61.9539 156.901 66.9263C156.901 77.2729 160.784 82.4463 168.549 82.4463C171.808 82.4463 175.754 81.6317 180.388 80.0024V88.2544C176.579 89.8413 172.326 90.6348 167.629 90.6348C160.879 90.6348 155.716 88.5929 152.141 84.5093C148.565 80.4045 146.777 74.5223 146.777 66.8628C146.777 62.0386 147.655 57.8174 149.411 54.1992C151.167 50.5599 153.685 47.7775 156.965 45.8521C160.266 43.9054 164.127 42.9321 168.549 42.9321C173.056 42.9321 177.584 44.0218 182.133 46.2012L178.959 54.1992C177.224 53.374 175.479 52.6546 173.723 52.041C171.966 51.4274 170.242 51.1206 168.549 51.1206ZM231.309 43.5986V73.623C231.309 77.0508 230.536 80.0553 228.992 82.6367C227.468 85.2181 225.257 87.1965 222.358 88.5718C219.46 89.9471 216.032 90.6348 212.075 90.6348C206.108 90.6348 201.475 89.1113 198.174 86.0645C194.873 82.9964 193.223 78.807 193.223 73.4961V43.5986H203.03V72.0044C203.03 75.5802 203.749 78.2039 205.188 79.8755C206.627 81.547 209.007 82.3828 212.329 82.3828C215.545 82.3828 217.873 81.547 219.312 79.8755C220.771 78.1828 221.501 75.5379 221.501 71.9409V43.5986H231.309ZM265.567 90L254.395 53.5962H254.109C254.511 61.0018 254.712 65.9424 254.712 68.418V90H245.921V43.5986H259.314L270.296 79.082H270.486L282.134 43.5986H295.528V90H286.355V68.0371C286.355 67.0003 286.366 65.8049 286.387 64.4507C286.43 63.0965 286.578 59.4995 286.832 53.6597H286.546L274.581 90H265.567ZM310.489 43.5986H324.93C331.511 43.5986 336.282 44.5402 339.244 46.4233C342.228 48.2853 343.719 51.2581 343.719 55.3418C343.719 58.1136 343.063 60.3882 341.751 62.1655C340.461 63.9429 338.736 65.0114 336.578 65.3711V65.6885C339.519 66.3444 341.635 67.5716 342.926 69.3701C344.238 71.1686 344.894 73.5596 344.894 76.543C344.894 80.7747 343.36 84.0755 340.292 86.4453C337.245 88.8151 333.097 90 327.85 90H310.489V43.5986ZM320.328 61.9751H326.041C328.707 61.9751 330.632 61.5625 331.817 60.7373C333.023 59.9121 333.626 58.5474 333.626 56.6431C333.626 54.8657 332.971 53.5962 331.659 52.8345C330.368 52.0516 328.316 51.6602 325.501 51.6602H320.328V61.9751ZM320.328 69.7827V81.875H326.739C329.448 81.875 331.447 81.3566 332.738 80.3198C334.028 79.283 334.674 77.6961 334.674 75.5591C334.674 71.7082 331.923 69.7827 326.422 69.7827H320.328ZM357.411 90V43.5986H367.25V90H357.411ZM410.585 90L407.221 78.9551H390.305L386.94 90H376.34L392.717 43.4082H404.746L421.186 90H410.585ZM404.873 70.7031C401.762 60.695 400.006 55.035 399.604 53.7231C399.223 52.4113 398.948 51.3745 398.779 50.6128C398.081 53.3211 396.081 60.0179 392.78 70.7031H404.873ZM428.181 85.4614C428.181 83.6841 428.657 82.3405 429.609 81.4307C430.562 80.5208 431.947 80.0659 433.767 80.0659C435.523 80.0659 436.877 80.5314 437.83 81.4624C438.803 82.3934 439.29 83.7264 439.29 85.4614C439.29 87.133 438.803 88.4554 437.83 89.4287C436.856 90.3809 435.502 90.8569 433.767 90.8569C431.99 90.8569 430.614 90.3914 429.641 89.4604C428.668 88.5083 428.181 87.1753 428.181 85.4614ZM447.237 103.647C445.015 103.647 443.079 103.415 441.429 102.949V94.7607C443.121 95.1839 444.666 95.3955 446.062 95.3955C448.221 95.3955 449.765 94.7184 450.696 93.3643C451.627 92.0312 452.093 89.9365 452.093 87.0801V43.5986H461.932V87.0166C461.932 92.4333 460.694 96.5592 458.218 99.3945C455.743 102.23 452.082 103.647 447.237 103.647ZM504.251 77.1143C504.251 81.3037 502.739 84.6045 499.713 87.0166C496.708 89.4287 492.519 90.6348 487.145 90.6348C482.193 90.6348 477.813 89.7038 474.005 87.8418V78.7012C477.136 80.0977 479.781 81.0815 481.939 81.6528C484.119 82.2241 486.108 82.5098 487.906 82.5098C490.064 82.5098 491.715 82.0972 492.857 81.272C494.021 80.4468 494.603 79.2196 494.603 77.5903C494.603 76.6805 494.349 75.8765 493.841 75.1782C493.333 74.4588 492.582 73.7712 491.588 73.1152C490.615 72.4593 488.615 71.4119 485.589 69.9731C482.754 68.6401 480.628 67.36 479.21 66.1328C477.792 64.9056 476.66 63.4774 475.814 61.8481C474.968 60.2189 474.544 58.3146 474.544 56.1353C474.544 52.0304 475.93 48.8037 478.702 46.4551C481.495 44.1064 485.346 42.9321 490.255 42.9321C492.667 42.9321 494.963 43.2178 497.142 43.7891C499.343 44.3604 501.638 45.1644 504.029 46.2012L500.855 53.8501C498.38 52.8345 496.327 52.1257 494.698 51.7236C493.09 51.3216 491.503 51.1206 489.938 51.1206C488.076 51.1206 486.647 51.5544 485.653 52.4219C484.658 53.2894 484.161 54.4214 484.161 55.8179C484.161 56.6854 484.362 57.4471 484.764 58.103C485.166 58.7378 485.801 59.362 486.668 59.9756C487.557 60.568 489.641 61.6471 492.921 63.2129C497.258 65.2865 500.231 67.3706 501.839 69.4653C503.447 71.5389 504.251 74.0885 504.251 77.1143Z" fill="black"/>
<path d="M398.5 51.5L387 90H410.5L399 51.5H398.5Z" fill="white"/>
<path d="M370.5 42L356 49V42H370.5Z" fill="white"/>
<path d="M463.5 43L449 50V43H463.5Z" fill="white"/>
<path d="M234.5 42L220 49V42H234.5Z" fill="white"/>
<path d="M206.5 42L192 49V42H206.5Z" fill="white"/>
<g filter="url(#filter0_d)">
<path d="M13 65.4431L13 116.404L73 87.1591V32L13 65.4431Z" fill="url(#paint0_linear)"/>
<path d="M13 65.4431L13 116.404L73 87.1591V32L13 65.4431Z" fill="url(#paint1_linear)"/>
</g>
<g filter="url(#filter1_d)">
<path d="M34 46.4431V97.4037L94 68.1591V13L34 46.4431Z" fill="url(#paint2_linear)"/>
</g>
<g filter="url(#filter2_d)">
<path d="M26 71.4431L26 122.404L86 93.1591V38L26 71.4431Z" fill="url(#paint3_linear)"/>
</g>
<defs>
<filter id="filter0_d" x="0" y="19" width="80" height="104.404" filterUnits="userSpaceOnUse" color-interpolation-filters="sRGB">
<feFlood flood-opacity="0" result="BackgroundImageFix"/>
<feColorMatrix in="SourceAlpha" type="matrix" values="0 0 0 0 0 0 0 0 0 0 0 0 0 0 0 0 0 0 127 0"/>
<feOffset dx="-3" dy="-3"/>
<feGaussianBlur stdDeviation="5"/>
<feColorMatrix type="matrix" values="0 0 0 0 0 0 0 0 0 0 0 0 0 0 0 0 0 0 0.25 0"/>
<feBlend mode="normal" in2="BackgroundImageFix" result="effect1_dropShadow"/>
<feBlend mode="normal" in="SourceGraphic" in2="effect1_dropShadow" result="shape"/>
</filter>
<filter id="filter1_d" x="21" y="0" width="80" height="104.404" filterUnits="userSpaceOnUse" color-interpolation-filters="sRGB">
<feFlood flood-opacity="0" result="BackgroundImageFix"/>
<feColorMatrix in="SourceAlpha" type="matrix" values="0 0 0 0 0 0 0 0 0 0 0 0 0 0 0 0 0 0 127 0"/>
<feOffset dx="-3" dy="-3"/>
<feGaussianBlur stdDeviation="5"/>
<feColorMatrix type="matrix" values="0 0 0 0 0 0 0 0 0 0 0 0 0 0 0 0 0 0 0.25 0"/>
<feBlend mode="normal" in2="BackgroundImageFix" result="effect1_dropShadow"/>
<feBlend mode="normal" in="SourceGraphic" in2="effect1_dropShadow" result="shape"/>
</filter>
<filter id="filter2_d" x="13" y="25" width="80" height="104.404" filterUnits="userSpaceOnUse" color-interpolation-filters="sRGB">
<feFlood flood-opacity="0" result="BackgroundImageFix"/>
<feColorMatrix in="SourceAlpha" type="matrix" values="0 0 0 0 0 0 0 0 0 0 0 0 0 0 0 0 0 0 127 0"/>
<feOffset dx="-3" dy="-3"/>
<feGaussianBlur stdDeviation="5"/>
<feColorMatrix type="matrix" values="0 0 0 0 0 0 0 0 0 0 0 0 0 0 0 0 0 0 0.25 0"/>
<feBlend mode="normal" in2="BackgroundImageFix" result="effect1_dropShadow"/>
<feBlend mode="normal" in="SourceGraphic" in2="effect1_dropShadow" result="shape"/>
</filter>
<linearGradient id="paint0_linear" x1="13.5281" y1="59.5796" x2="73" y2="59.5796" gradientUnits="userSpaceOnUse">
<stop stop-opacity="0.6"/>
<stop offset="0.676173" stop-color="#433F49" stop-opacity="0.6"/>
<stop offset="1" stop-color="#322E37" stop-opacity="0.6"/>
</linearGradient>
<linearGradient id="paint1_linear" x1="13.5281" y1="59.5796" x2="73" y2="59.5796" gradientUnits="userSpaceOnUse">
<stop stop-opacity="0.85"/>
<stop offset="0.676173" stop-color="#433F49" stop-opacity="0.85"/>
<stop offset="1" stop-color="#322E37" stop-opacity="0.85"/>
</linearGradient>
<linearGradient id="paint2_linear" x1="34.5281" y1="40.5796" x2="94" y2="40.5796" gradientUnits="userSpaceOnUse">
<stop offset="0.0677083" stop-color="#3C53F1"/>
<stop offset="0.25" stop-color="#1B7AC1"/>
<stop offset="1" stop-color="#FF0000"/>
</linearGradient>
<linearGradient id="paint3_linear" x1="26.5281" y1="65.5796" x2="86" y2="65.5796" gradientUnits="userSpaceOnUse">
<stop stop-opacity="0.85"/>
<stop offset="0.676173" stop-color="#433F49" stop-opacity="0.85"/>
<stop offset="1" stop-color="#322E37" stop-opacity="0.85"/>
</linearGradient>
</defs>
</svg>
