<svg width="505" height="130" viewBox="0 0 505 130" fill="none" xmlns="http://www.w3.org/2000/svg">
<path fill-rule="evenodd" clip-rule="evenodd" d="M193.223 48.4098V73.4961C193.223 78.807 194.873 82.9964 198.174 86.0645C201.475 89.1113 206.108 90.6348 212.075 90.6348C216.032 90.6348 219.46 89.9471 222.358 88.5718C225.257 87.1965 227.468 85.2181 228.992 82.6367C230.536 80.0553 231.309 77.0508 231.309 73.623V43.5986H231.189L221.501 48.2752V71.9409C221.501 75.5379 220.771 78.1828 219.312 79.8755C217.873 81.547 215.545 82.3828 212.329 82.3828C209.007 82.3828 206.627 81.547 205.188 79.8755C203.749 78.2039 203.03 75.5802 203.03 72.0044V43.6753L193.223 48.4098ZM357.411 90V48.3188L367.189 43.5986H367.25V90H357.411ZM159.948 55.3101C161.979 52.5171 164.847 51.1206 168.549 51.1206C170.242 51.1206 171.966 51.4274 173.723 52.041C175.479 52.6546 177.224 53.374 178.959 54.1992L182.133 46.2012C177.584 44.0218 173.056 42.9321 168.549 42.9321C164.127 42.9321 160.266 43.9054 156.965 45.8521C153.685 47.7775 151.167 50.5599 149.411 54.1992C147.655 57.8174 146.777 62.0386 146.777 66.8628C146.777 74.5223 148.565 80.4045 152.141 84.5093C155.716 88.5929 160.879 90.6348 167.629 90.6348C172.326 90.6348 176.579 89.8413 180.388 88.2544V80.0024C175.754 81.6317 171.808 82.4463 168.549 82.4463C160.784 82.4463 156.901 77.2729 156.901 66.9263C156.901 61.9539 157.917 58.0819 159.948 55.3101ZM254.395 53.5962L265.567 90H274.581L286.546 53.6597H286.832C286.578 59.4995 286.43 63.0965 286.387 64.4507C286.366 65.8048 286.355 67.0003 286.355 68.0371V90H295.528V43.5986H282.134L270.486 79.082H270.296L259.314 43.5986H245.921V90H254.712V68.418C254.712 65.9424 254.511 61.0018 254.109 53.5962H254.395ZM324.93 43.5986H310.489V90H327.85C333.097 90 337.245 88.8151 340.292 86.4453C343.36 84.0755 344.894 80.7747 344.894 76.543C344.894 73.5596 344.238 71.1686 342.926 69.3701C341.635 67.5716 339.519 66.3444 336.578 65.6885V65.3711C338.736 65.0114 340.461 63.9429 341.751 62.1655C343.063 60.3882 343.719 58.1136 343.719 55.3418C343.719 51.2581 342.228 48.2853 339.244 46.4233C336.282 44.5402 331.511 43.5986 324.93 43.5986ZM326.041 61.9751H320.328V51.6602H325.501C328.316 51.6602 330.368 52.0516 331.659 52.8345C332.971 53.5962 333.626 54.8657 333.626 56.6431C333.626 58.5474 333.023 59.9121 331.817 60.7373C330.632 61.5625 328.707 61.9751 326.041 61.9751ZM320.328 81.875V69.7827H326.422C331.923 69.7827 334.674 71.7082 334.674 75.5591C334.674 77.6961 334.028 79.283 332.738 80.3198C331.447 81.3566 329.448 81.875 326.739 81.875H320.328ZM407.221 78.9551L410.585 90H421.186L404.746 43.4082H392.717L376.34 90H386.94L390.018 79.8972L398.5 51.5H398.543C398.633 51.1677 398.712 50.872 398.779 50.6128C398.837 50.8757 398.908 51.1715 398.992 51.5H399L401.31 59.2342C402.181 62.0404 403.368 65.8633 404.873 70.7031H404.736L407.201 78.9551H407.221ZM429.609 81.4307C428.657 82.3405 428.181 83.6841 428.181 85.4614C428.181 87.1753 428.668 88.5083 429.641 89.4604C430.614 90.3914 431.99 90.8569 433.767 90.8569C435.502 90.8569 436.856 90.3809 437.83 89.4287C438.803 88.4554 439.29 87.133 439.29 85.4614C439.29 83.7264 438.803 82.3934 437.83 81.4624C436.877 80.5314 435.523 80.0659 433.767 80.0659C431.947 80.0659 430.562 80.5208 429.609 81.4307ZM441.429 102.949C443.079 103.415 445.015 103.647 447.237 103.647C452.082 103.647 455.743 102.23 458.218 99.3945C460.694 96.5592 461.932 92.4333 461.932 87.0166V43.7571L452.093 48.5069V87.0801C452.093 89.9365 451.627 92.0312 450.696 93.3643C449.765 94.7184 448.221 95.3955 446.062 95.3955C444.666 95.3955 443.121 95.1839 441.429 94.7607V102.949ZM499.713 87.0166C502.739 84.6045 504.251 81.3037 504.251 77.1143C504.251 74.0885 503.447 71.5389 501.839 69.4653C500.231 67.3706 497.258 65.2865 492.921 63.2129C489.641 61.6471 487.557 60.568 486.668 59.9756C485.801 59.362 485.166 58.7378 484.764 58.103C484.362 57.4471 484.161 56.6854 484.161 55.8179C484.161 54.4214 484.658 53.2894 485.653 52.4219C486.647 51.5544 488.076 51.1206 489.938 51.1206C491.503 51.1206 493.09 51.3216 494.698 51.7236C496.327 52.1257 498.38 52.8345 500.855 53.8501L504.029 46.2012C501.638 45.1644 499.343 44.3604 497.142 43.7891C494.963 43.2178 492.667 42.9321 490.255 42.9321C485.346 42.9321 481.495 44.1064 478.702 46.4551C475.93 48.8037 474.544 52.0304 474.544 56.1353C474.544 58.3146 474.968 60.2189 475.814 61.8481C476.66 63.4774 477.792 64.9056 479.21 66.1328C480.628 67.36 482.754 68.6401 485.589 69.9731C488.615 71.4119 490.615 72.4593 491.588 73.1152C492.582 73.7712 493.333 74.4588 493.841 75.1782C494.349 75.8765 494.603 76.6805 494.603 77.5903C494.603 79.2196 494.021 80.4468 492.857 81.272C491.715 82.0972 490.064 82.5098 487.906 82.5098C486.108 82.5098 484.119 82.2241 481.939 81.6528C479.781 81.0815 477.136 80.0977 474.005 78.7012V87.8418C477.813 89.7038 482.193 90.6348 487.145 90.6348C492.519 90.6348 496.708 89.4287 499.713 87.0166Z" fill="black"/>
<g filter="url(#filter0_d)">
<path d="M13 65.4431L13 116.404L73 87.1591V32L13 65.4431Z" fill="url(#paint0_linear)"/>
<path d="M13 65.4431L13 116.404L73 87.1591V32L13 65.4431Z" fill="url(#paint1_linear)"/>
</g>
<g filter="url(#filter1_d)">
<path d="M34 46.4431V97.4037L94 68.1591V13L34 46.4431Z" fill="url(#paint2_linear)"/>
</g>
<g filter="url(#filter2_d)">
<path d="M26 71.4431L26 122.404L86 93.1591V38L26 71.4431Z" fill="url(#paint3_linear)"/>
</g>
<defs>
<filter id="filter0_d" x="0" y="19" width="80" height="104.404" filterUnits="userSpaceOnUse" color-interpolation-filters="sRGB">
<feFlood flood-opacity="0" result="BackgroundImageFix"/>
<feColorMatrix in="SourceAlpha" type="matrix" values="0 0 0 0 0 0 0 0 0 0 0 0 0 0 0 0 0 0 127 0"/>
<feOffset dx="-3" dy="-3"/>
<feGaussianBlur stdDeviation="5"/>
<feColorMatrix type="matrix" values="0 0 0 0 0 0 0 0 0 0 0 0 0 0 0 0 0 0 0.25 0"/>
<feBlend mode="normal" in2="BackgroundImageFix" result="effect1_dropShadow"/>
<feBlend mode="normal" in="SourceGraphic" in2="effect1_dropShadow" result="shape"/>
</filter>
<filter id="filter1_d" x="21" y="0" width="80" height="104.404" filterUnits="userSpaceOnUse" color-interpolation-filters="sRGB">
<feFlood flood-opacity="0" result="BackgroundImageFix"/>
<feColorMatrix in="SourceAlpha" type="matrix" values="0 0 0 0 0 0 0 0 0 0 0 0 0 0 0 0 0 0 127 0"/>
<feOffset dx="-3" dy="-3"/>
<feGaussianBlur stdDeviation="5"/>
<feColorMatrix type="matrix" values="0 0 0 0 0 0 0 0 0 0 0 0 0 0 0 0 0 0 0.25 0"/>
<feBlend mode="normal" in2="BackgroundImageFix" result="effect1_dropShadow"/>
<feBlend mode="normal" in="SourceGraphic" in2="effect1_dropShadow" result="shape"/>
</filter>
<filter id="filter2_d" x="13" y="25" width="80" height="104.404" filterUnits="userSpaceOnUse" color-interpolation-filters="sRGB">
<feFlood flood-opacity="0" result="BackgroundImageFix"/>
<feColorMatrix in="SourceAlpha" type="matrix" values="0 0 0 0 0 0 0 0 0 0 0 0 0 0 0 0 0 0 127 0"/>
<feOffset dx="-3" dy="-3"/>
<feGaussianBlur stdDeviation="5"/>
<feColorMatrix type="matrix" values="0 0 0 0 0 0 0 0 0 0 0 0 0 0 0 0 0 0 0.25 0"/>
<feBlend mode="normal" in2="BackgroundImageFix" result="effect1_dropShadow"/>
<feBlend mode="normal" in="SourceGraphic" in2="effect1_dropShadow" result="shape"/>
</filter>
<linearGradient id="paint0_linear" x1="13.5281" y1="59.5796" x2="73" y2="59.5796" gradientUnits="userSpaceOnUse">
<stop stop-opacity="0.6"/>
<stop offset="0.676173" stop-color="#433F49" stop-opacity="0.6"/>
<stop offset="1" stop-color="#322E37" stop-opacity="0.6"/>
</linearGradient>
<linearGradient id="paint1_linear" x1="13.5281" y1="59.5796" x2="73" y2="59.5796" gradientUnits="userSpaceOnUse">
<stop stop-opacity="0.85"/>
<stop offset="0.676173" stop-color="#433F49" stop-opacity="0.85"/>
<stop offset="1" stop-color="#322E37" stop-opacity="0.85"/>
</linearGradient>
<linearGradient id="paint2_linear" x1="34.5281" y1="40.5796" x2="94" y2="40.5796" gradientUnits="userSpaceOnUse">
<stop offset="0.0677083" stop-color="#3C53F1"/>
<stop offset="0.25" stop-color="#1B7AC1"/>
<stop offset="1" stop-color="#FF0000"/>
</linearGradient>
<linearGradient id="paint3_linear" x1="26.5281" y1="65.5796" x2="86" y2="65.5796" gradientUnits="userSpaceOnUse">
<stop stop-opacity="0.85"/>
<stop offset="0.676173" stop-color="#433F49" stop-opacity="0.85"/>
<stop offset="1" stop-color="#322E37" stop-opacity="0.85"/>
</linearGradient>
</defs>
</svg>
